<svg xmlns="http://www.w3.org/2000/svg" viewBox="0 0 293.56 319.93"><defs><style>.cls-1{fill:#63c3d1;}.cls-1,.cls-2,.cls-3,.cls-6{fill-rule:evenodd;}.cls-2{fill:#afca0b;}.cls-3{fill:#f59e00;}.cls-4{fill:#878787;}.cls-5{fill:#3c3c3b;}.cls-6{fill:#006c60;}</style></defs><title>Luke&amp;apos;s Welness Market_1</title><g id="Layer_2" data-name="Layer 2"><g id="Layer_1-2" data-name="Layer 1"><path class="cls-1" d="M146.78,263.5v30.06A146.79,146.79,0,0,1,0,146.78H30.05A116.72,116.72,0,0,0,146.78,263.5Z"/><path class="cls-2" d="M146.78,30.05V0A146.77,146.77,0,0,1,293.56,146.78h-30A116.73,116.73,0,0,0,146.79,30.05Z"/><path class="cls-3" d="M146.78,30.05V0A146.78,146.78,0,0,0,0,146.78H30.05A116.73,116.73,0,0,1,146.78,30.05Z"/><path class="cls-4" d="M71.91,178.48l-2.65-15.24H72.4l.76,6.09c.21,1.74.34,3.48.53,5.33h.07c.21-1.87.55-3.53.88-5.36l1.1-6.06h2.45l1,6c.27,1.72.55,3.41.73,5.4H80c.21-2,.39-3.62.6-5.38l.76-6h3l-2.75,15.24H78.47l-.93-5c-.25-1.41-.48-3.15-.69-5h0c-.27,1.83-.53,3.53-.85,5l-1,5Z"/><path class="cls-4" d="M92.51,171.79H89v4.12h4v2.57H86V163.24h6.76v2.58H89v3.51h3.53Z"/><path class="cls-4" d="M95.05,163.24h3V176h4v2.51h-7Z"/><path class="cls-4" d="M103.81,163.24h3V176h4v2.51h-7Z"/><path class="cls-4" d="M112.57,178.48V163.24h2.77l2.4,6c.49,1.18,1.22,3.15,1.66,4.46h0c-.09-1.61-.3-4.25-.3-7.06v-3.37h2.65v15.24H119l-2.37-5.78a45.39,45.39,0,0,1-1.59-4.6h0c.09,1.54.21,3.89.21,7v3.41Z"/><path class="cls-4" d="M131,171.79H127.5v4.12h4v2.57h-7V163.24h6.75v2.58H127.5v3.51H131Z"/><path class="cls-4" d="M133.22,175.45a6,6,0,0,0,2.56.59c1.4,0,2.12-.72,2.12-1.72s-.69-1.65-2-2.48c-2.12-1.27-2.93-2.88-2.93-4.26,0-2.44,1.66-4.47,4.89-4.47a5.29,5.29,0,0,1,2.45.54l-.49,2.56a3.61,3.61,0,0,0-2-.52c-1.29,0-1.91.76-1.91,1.58s.46,1.38,2.12,2.37a4.92,4.92,0,0,1,2.82,4.37c0,2.78-2.1,4.61-5.13,4.61a7.08,7.08,0,0,1-3-.61Z"/><path class="cls-4" d="M142.3,175.45a6.1,6.1,0,0,0,2.56.59c1.41,0,2.13-.72,2.13-1.72s-.7-1.65-2-2.48c-2.12-1.27-2.93-2.88-2.93-4.26,0-2.44,1.66-4.47,4.89-4.47a5.29,5.29,0,0,1,2.45.54l-.49,2.56a3.67,3.67,0,0,0-2-.52c-1.29,0-1.91.76-1.91,1.58s.46,1.38,2.12,2.37A4.92,4.92,0,0,1,150,174c0,2.78-2.1,4.61-5.12,4.61a7.18,7.18,0,0,1-3-.61Z"/><path class="cls-4" d="M164.91,173.15c-.09-1.45-.19-3.42-.16-5.05h-.05c-.28,1.63-.69,3.51-1,4.69l-1.36,5.45h-2.12l-1.3-5.36c-.3-1.22-.71-3.12-1-4.78h0c0,1.66-.16,3.58-.23,5.09l-.28,5.29h-2.58l1.1-15.24h3.21l1.25,5.52c.41,1.92.8,3.62,1.08,5.34h.07c.23-1.7.58-3.42,1-5.34l1.24-5.52h3.19l.94,15.24h-2.69Z"/><path class="cls-4" d="M172.56,175l-.69,3.48h-2.93l3.37-15.24h3.62l3,15.24H176l-.66-3.48Zm2.52-2.3-.51-3.19c-.16-.93-.37-2.47-.51-3.46H174c-.16,1-.39,2.57-.55,3.46l-.58,3.19Z"/><path class="cls-4" d="M180.66,163.47a18.37,18.37,0,0,1,3.3-.3,6.13,6.13,0,0,1,4.15,1.14,3.83,3.83,0,0,1,1.25,3.16,4,4,0,0,1-2.4,3.8v0c1.06.43,1.59,1.38,1.89,3a23.76,23.76,0,0,0,1,4.13h-3.16a17.91,17.91,0,0,1-.78-3.66c-.28-1.88-.77-2.42-1.76-2.42h-.46v6.08h-3Zm3,6.65h.55a2.11,2.11,0,0,0,2.06-2.38c0-1.31-.53-2.21-1.87-2.26a2.19,2.19,0,0,0-.74.09Z"/><path class="cls-4" d="M191.5,163.24h3v6.85h.07c.25-.63.48-1.31.74-2l2.07-4.89h3.35l-3.51,6.63,3.56,8.61h-3.33l-2.26-6.3-.69,1.24v5.06h-3Z"/><path class="cls-4" d="M208.64,171.79h-3.53v4.12h4v2.57h-7V163.24h6.76v2.58h-3.73v3.51h3.53Z"/><path class="cls-4" d="M212.86,166h-2.75v-2.74h8.54V166h-2.77v12.5h-3Z"/><path class="cls-5" d="M69.13,110.06h9v37.72H89.84v7.44H69.13Z"/><path class="cls-5" d="M102.41,110.06v29.35c0,6.63,2,8.64,4.38,8.64,2.6,0,4.44-1.81,4.44-8.64V110.06h9v27.81c0,11.59-4.51,17.89-13.32,17.89-9.64,0-13.4-6.5-13.4-17.83V110.06Z"/><path class="cls-5" d="M127.91,110.06h9v20.3h.21c.75-1.87,1.43-3.88,2.18-5.83l6.15-14.47h9.91l-10.38,19.63,10.52,25.53h-9.84l-6.7-18.69-2,3.68v15h-9Z"/><path class="cls-5" d="M178.69,135.39H168.23v12.19h11.82v7.64H159.28V110.06h20v7.64H168.23v10.38h10.46Z"/><path class="cls-5" d="M194.82,109.39a84.09,84.09,0,0,1-7.66,16.88l-4.64.61a90.88,90.88,0,0,0,4.57-16.82Z"/><path class="cls-5" d="M198.16,146.24a18,18,0,0,0,7.59,1.74c4.17,0,6.29-2.14,6.29-5.09,0-3.28-2-4.89-5.95-7.37-6.28-3.75-8.68-8.51-8.68-12.6,0-7.23,4.92-13.26,14.49-13.26a15.47,15.47,0,0,1,7.25,1.61l-1.44,7.57a11,11,0,0,0-5.81-1.54c-3.83,0-5.67,2.27-5.67,4.69,0,2.68,1.37,4.08,6.29,7,6.15,3.62,8.34,8.18,8.34,12.93,0,8.24-6.22,13.67-15.18,13.67a20.81,20.81,0,0,1-8.81-1.81Z"/><path class="cls-6" d="M146.78,263.5v30.06A146.79,146.79,0,0,0,293.56,146.78h-30A116.73,116.73,0,0,1,146.79,263.5Z"/><path class="cls-2" d="M136.45,319.93c.06-2.82.22-5.64.17-8.46-.26-13.71-4-26.14-13.41-36.51-6.18-6.81-13.46-12.3-21-17.52-6.42-4.47-15.33-9.16-24.61-15.94C67.31,234,67.71,230.29,59.5,220.44c-4.72-5.66-9.68-17.95-11.67-25.12-.61-2.23-.87-4.56-1.3-6.84-.38-2,.79-2.79,2.32-2.25a65.81,65.81,0,0,1,8.07,3.68,20.72,20.72,0,0,1,3.15,2.68,11.9,11.9,0,0,0-.74-2.15c-3-4.31-7.23-6.75-12.12-8.32-.94-.3-2.23-1-2.47-1.8-2.13-7.16-4.08-14.37-6-21.58a7.69,7.69,0,0,1-.11-2.58c.17-1.85,0-4,2.39-4.64a5.39,5.39,0,0,1,6.18,3c4.25,9.56,8.45,19.14,12.69,28.7a103.84,103.84,0,0,0,20.79,30.59c.8.83,1.74,1.54,2.53,2.22-2.91-4.06-6.1-8-8.71-12.33a29.58,29.58,0,0,1-3.39-8.86,17,17,0,0,1,.09-7.37c.94-4,4.58-5.18,7.7-2.47a45.12,45.12,0,0,1,5.91,6.78c3.07,4,5.83,8.33,9,12.3,5.44,6.86,12.79,11,20.66,14.58,15.08,6.95,26.44,17.86,32.94,33.4a47.58,47.58,0,0,1,3.45,21.5C149.83,290.17,144.08,305.29,136.45,319.93Z"/><polygon class="cls-3" points="237.3 113.94 231.88 110.76 226.31 113.67 227.52 107.25 223.19 102.57 229.35 101.78 232.25 95.99 234.85 101.92 240.97 103.01 236.41 107.47 237.3 113.94"/><polygon class="cls-3" points="229.63 83.81 226.02 81.69 222.31 83.63 223.11 79.35 220.22 76.24 224.34 75.71 226.26 71.85 228 75.8 232.08 76.53 229.04 79.5 229.63 83.81"/><polygon class="cls-3" points="208.13 95.78 202.71 92.6 197.14 95.51 198.35 89.09 194.01 84.41 200.18 83.62 203.07 77.83 205.67 83.76 211.79 84.85 207.24 89.31 208.13 95.78"/></g></g></svg>